<?xml version="1.0" encoding="UTF-8"?>
<svg id="Layer_1" data-name="Layer 1" xmlns="http://www.w3.org/2000/svg" viewBox="0 0 434.99 119.42">
  <defs>
    <style>
      .cls-1 {
        fill: #0b0b0b;
      }
    </style>
  </defs>
  <path class="cls-1" d="M88.12,75.94c0,4.65-1.17,9.05-3.52,13.21s-5.99,7.53-10.93,10.11c-4.94,2.58-11.32,3.87-19.13,3.87-3.91,0-7.33-.18-10.28-.53-2.95-.35-5.69-.93-8.23-1.73-2.54-.8-5.18-1.85-7.91-3.13v-20.62c4.65,2.34,9.34,4.13,14.06,5.36,4.73,1.23,9,1.85,12.83,1.85,2.3,0,4.19-.27,5.65-.82,1.46-.55,2.55-1.3,3.25-2.26.7-.96,1.05-2.06,1.05-3.31,0-1.48-.52-2.74-1.55-3.78-1.04-1.03-2.69-2.12-4.95-3.25-2.27-1.13-5.25-2.54-8.96-4.22-3.16-1.48-6.03-3.01-8.58-4.57-2.56-1.56-4.75-3.35-6.56-5.36-1.82-2.01-3.21-4.37-4.19-7.06-.98-2.7-1.46-5.88-1.46-9.55,0-5.51,1.36-10.13,4.07-13.86,2.71-3.73,6.38-6.04,11.25-7.91s10.6-2.08,16.97-2.08h25.1v18.93h-25.94c-1,0-4.04,0-5.91.83s-2.57,2.51-2.57,3.04c0,1.33.52,2.52,1.55,3.57,1.03,1.05,2.77,2.2,5.21,3.43,2.44,1.23,5.77,2.82,9.99,4.78,4.18,1.88,7.73,3.9,10.66,6.06,2.93,2.17,5.17,4.77,6.71,7.79,1.54,3.03,2.31,6.77,2.31,11.22Z"/>
  <polygon class="cls-1" points="140.15 101.96 117.01 101.96 117.01 35.22 96.09 35.22 96.09 16.29 161.01 16.29 161.01 35.22 140.15 35.22 140.15 101.96"/>
  <path class="cls-1" d="M220.71,64.63c3.01-1.68,5.6-3.64,7.76-5.89,2.17-2.25,3.84-4.79,5.01-7.65,1.17-2.85,1.76-6.02,1.76-9.49,0-5.59-1.3-10.25-3.9-14-2.6-3.75-6.47-6.57-11.63-8.47-5.16-1.89-11.62-2.84-19.39-2.84h-28.07v85.66h23.14v-31.17h5.86l18.16,31.17h26.25l-24.96-37.32ZM208.47,51.04c-2.27,1.56-5.18,2.34-8.73,2.34h-4.34v-19.57h4.57c4.18,0,7.21.78,9.08,2.34,1.88,1.56,2.81,3.73,2.81,6.5,0,4.02-1.13,6.82-3.4,8.38Z"/>
  <polygon class="cls-1" points="284.05 48.05 298.82 16.29 323.9 16.29 295.71 68.5 295.71 101.96 272.39 101.96 272.39 69.2 244.21 16.29 269.41 16.29 284.05 48.05"/>
  <path class="cls-1" d="M401.86,34.93c-3.34-6.09-8.21-10.72-14.62-13.89-6.41-3.16-14.22-4.75-23.44-4.75h-29.65v85.66h27.71c9.1,0,17.02-1.65,23.76-4.95,6.74-3.3,11.96-8.25,15.67-14.85,3.71-6.6,5.57-14.88,5.57-24.84,0-8.83-1.67-16.29-5.01-22.38ZM377.92,76.85c-3.28,4.08-8.44,6.12-15.47,6.12h-5.16v-47.99h6.74c4.22,0,7.71.85,10.49,2.55,2.77,1.7,4.85,4.26,6.24,7.68,1.39,3.42,2.08,7.73,2.08,12.92,0,8.4-1.64,14.64-4.92,18.72Z"/>
</svg>