<?xml version="1.0" encoding="UTF-8"?>
<svg id="Layer_1" data-name="Layer 1" xmlns="http://www.w3.org/2000/svg" viewBox="0 0 500 500">
  <defs>
    <style>
      .cls-1 {
        fill: #2d6b50;
      }
    </style>
  </defs>
  <path class="cls-1" d="M367.34,313.48c0,18.19-4.58,35.41-13.75,51.68-9.17,16.27-23.42,29.45-42.74,39.53-19.33,10.08-44.27,15.13-74.83,15.13-15.28,0-28.69-.69-40.22-2.06-11.54-1.38-22.27-3.63-32.2-6.76-9.93-3.13-20.25-7.22-30.94-12.26v-80.67c18.18,9.17,36.52,16.16,55,20.97,18.49,4.81,35.22,7.22,50.19,7.22,9.01,0,16.39-1.07,22.12-3.21,5.73-2.14,9.97-5.08,12.72-8.82,2.75-3.74,4.13-8.06,4.13-12.95,0-5.8-2.03-10.73-6.07-14.78-4.05-4.05-10.51-8.29-19.37-12.72-8.86-4.43-20.55-9.93-35.07-16.5-12.38-5.8-23.57-11.76-33.58-17.88-10.01-6.11-18.56-13.1-25.67-20.97-7.1-7.87-12.57-17.07-16.39-27.62-3.82-10.54-5.73-22.99-5.73-37.36,0-21.54,5.31-39.61,15.93-54.2,10.62-14.59,24.96-23.61,43.99-30.94,19.02-7.33,41.46-8.13,66.37-8.13h98.18v74.03h-101.46c-3.9,0-15.81-.02-23.13,3.24-7.32,3.27-10.04,9.82-10.04,11.88,0,5.2,2.02,9.86,6.07,13.98,4.05,4.13,10.85,8.59,20.4,13.41,9.55,4.81,22.57,11.04,39.08,18.68,16.35,7.33,30.25,15.24,41.71,23.72,11.46,8.48,20.2,18.64,26.24,30.48,6.03,11.85,9.05,26.47,9.05,43.89Z"/>
</svg>